# xmcd CD database file
#
# Track frame offsets:
#	150
#	14260
#	33012
#	49545
#	67260
#	82077
#	94222
#	111700
#	130137
#	149475
#	162292
#	179170
#
# Disc length: 2637 seconds
#
# Revision: 2
# Processed by: cddbd v1.4b41PL1 Copyright (c) Steve Scherf et al.
# Submitted via: Feurio! 1.52 - http://www.feurio.com
#
DISCID=b00a4b0c
DTITLE=Harmonica Slim - Back Bottom Blues
DYEAR=1900
DGENRE=
TTITLE0=Back Bottom Soul
TTITLE1=2 trains Runnin´ 
TTITLE2=Whiskey Headed Woman
TTITLE3=Louise Ann
TTITLE4=Baby Please Don´t Go
TTITLE5=Tijuana Blues
TTITLE6=Shake Yo´ Booty
TTITLE7=Gonna Move Back To Town
TTITLE8=Dust My Broom
TTITLE9=Stoop Down
TTITLE10=Drunk Woman
TTITLE11=Back Bottom Blues
EXTD=
EXTT0=
EXTT1=
EXTT2=
EXTT3=
EXTT4=
EXTT5=
EXTT6=
EXTT7=
EXTT8=
EXTT9=
EXTT10=
EXTT11=
PLAYORDER=
